<svg width="167" height="167" viewBox="0 0 167 167" fill="#f08e2d" xmlns="http://www.w3.org/2000/svg">
<path d="M117.1 15.8L101.4 31.5V57.5L91.6 67.3C82.7 76.2 81.5 77 78 77C72.4 77 67.4 82.2 67.4 88C67.4 91.4 68 92.8 70.8 95.6C73.6 98.4 75 99 78.4 99C81.8 99 83.2 98.4 86 95.6C88.7 92.9 89.4 91.4 89.4 88.3C89.4 84.8 90.2 83.7 99.2 74.7L108.9 65H134.9L150.7 49.2C159.3 40.6 166.4 33.2 166.4 32.8C166.4 32.4 159.3 31.9 150.7 31.8L134.9 31.5L134.6 15.7C134.5 7.1 134 0 133.6 0C133.2 0 125.8 7.1 117.1 15.8ZM140.7 43.1L130 54H112.4V36.6L122.9 25.9L123.9 42.5L140.7 43.1Z" fill="#f08e2d"/>
<path d="M67.9 10C35.5 14.9 10.6 37.5 1.8 70C-0.6 78.9 -0.6 97.1 1.8 106C9.9 135.9 30.5 156.5 60.4 164.6C69.3 167 87.5 167 96.4 164.6C130.6 155.3 153.4 128.8 156.9 93.8C157.6 87.1 155.9 70.4 154.5 69.5C154.1 69.3 152 70.9 149.8 73.1L145.9 77.1L145.8 88.3C145.5 107.5 139.4 122 125.9 135.5C112.4 149 97.2 155.4 78.4 155.4C59.6 155.4 44.4 149 30.9 135.5C17.4 122 11 106.8 11 88C11 69.2 17.4 54 30.9 40.5C44.4 27 58.9 20.9 78.1 20.6L89.3 20.5L93.4 16.5C95.6 14.4 97.1 12.3 96.6 11.9C95.6 10.9 82.3 9 77.2 9.1C74.8 9.2 70.7 9.6 67.9 10Z" fill="#f08e2d"/>
<path d="M69.5 44.1C56.7 46.6 43.8 56.6 38.4 68.2C25.5 96 41.8 127.2 71.8 132.2C100 136.9 126 111.9 122.9 83.3L122.2 77H110.4L111.1 79.7C112.6 85.1 111.8 96.2 109.6 101.2C106.7 107.8 99.2 115.5 92.5 118.7C87.7 121.1 85.7 121.5 78.4 121.5C71.1 121.5 69.1 121.1 64.3 118.7C57.6 115.5 50.1 107.8 47.1 101.2C45.5 97.6 45 94.6 45 88C45 77.7 47 72.5 54 65C60.6 57.9 67.7 54.7 76.7 54.6C80.7 54.5 85.1 54.8 86.7 55.3L89.4 56V44.3L84.8 43.6C79 42.9 75.2 43 69.5 44.1Z" fill="#f08e2d"/>
</svg>
