<?xml version="1.0" standalone="no"?>
<!DOCTYPE svg PUBLIC "-//W3C//DTD SVG 20010904//EN"
 "http://www.w3.org/TR/2001/REC-SVG-20010904/DTD/svg10.dtd">
<svg version="1.0" xmlns="http://www.w3.org/2000/svg"
 width="180.308645pt" height="180.000000pt" viewBox="0 0 180.308645 180.000000"
 preserveAspectRatio="xMidYMid meet">
<metadata>
Created by potrace 1.12, written by Peter Selinger 2001-2015
</metadata>
<g transform="translate(-14.000000,194.000000) scale(0.100000,-0.100000)"
fill="##f08e2d" stroke="none">
<path fill="#f08e2d" d="M1735 1933 c-146 -13 -358 -75 -470 -138 -102 -57 -198 -130 -306
-232 l-104 -98 -242 -80 -243 -80 0 -132 0 -133 95 0 c52 0 95 -2 95 -5 0 -2
-30 -57 -66 -121 l-65 -118 184 -183 183 -184 118 65 c64 36 119 66 121 66 3
0 5 -43 5 -95 l0 -95 133 0 132 0 80 243 80 242 98 104 c159 168 241 296 301
468 45 131 65 238 73 391 l6 122 -84 -2 c-46 -1 -102 -3 -124 -5z m90 -112
c10 -17 -15 -194 -41 -286 -78 -278 -286 -539 -597 -750 l-88 -59 -186 187
-187 186 59 88 c254 374 569 592 915 632 106 12 118 12 125 2z m-1095 -516 c0
-2 -23 -38 -51 -80 l-50 -75 -75 0 -74 0 0 38 0 39 118 40 c130 44 132 45 132
38z m105 -475 c129 -129 157 -162 145 -170 -8 -6 -48 -28 -89 -51 l-73 -41
-32 28 c-73 66 -216 209 -216 217 0 12 93 177 100 177 3 0 77 -72 165 -160z
m471 -112 c-2 -7 -21 -64 -42 -125 l-37 -113 -38 0 -39 0 0 74 0 75 73 50 c75
52 92 60 83 39z"/>
<path fill="#f08e2d" d="M1210 1481 c-76 -24 -118 -61 -149 -131 -39 -85 -21 -170 49 -240 70
-70 155 -88 240 -49 90 41 134 108 134 204 0 89 -40 157 -117 197 -44 22 -120
31 -157 19z m106 -116 c34 -14 64 -61 64 -101 0 -30 -30 -80 -59 -97 -100 -59
-213 54 -154 154 18 29 65 58 96 59 10 0 33 -7 53 -15z"/>
<path fill="#f08e2d" d="M310 581 c-76 -24 -118 -61 -149 -131 -17 -38 -21 -66 -21 -177 l0
-133 133 0 c141 0 192 13 245 63 86 80 89 226 8 315 -46 52 -155 83 -216 63z
m106 -116 c23 -10 39 -26 49 -49 19 -45 19 -60 -1 -101 -22 -48 -66 -67 -144
-63 l-65 3 -3 65 c-4 77 15 121 62 144 39 19 58 20 102 1z"/>
</g>
</svg>
