<svg width="168" height="169" viewBox="0 0 168 169" fill="none" xmlns="http://www.w3.org/2000/svg">
<path fill="#f08e2d" d="M14.5 14.2C10.1 22 5.10001 30.8 3.30001 33.9L0.100006 39.5L11.4 59L22.6 78.5H67.4L78.6 59L89.9 39.5L86.7 33.9C84.9 30.8 79.9 22 75.5 14.2L67.5 0H22.5L14.5 14.2ZM69.1 25.1C75.4 36 77.1 39.6 76.4 40.9C75.8 41.8 72.1 48.2 68.1 55.2L60.8 68H29.2L21.9 55.2C17.9 48.2 14.2 41.8 13.6 40.9C12.9 39.6 14.6 36 20.9 25.1L29.2 11H60.8L69.1 25.1Z"/>
<path fill="#f08e2d" d="M90.5 64.2C84.4 74.8 79.6 84 79.6 84.7C79.7 85.3 84.6 94.4 90.6 104.9L101.5 124L123.9 123.8L146.2 123.5L157.1 104.5C163.1 94 168 85 168 84.4C168 83.8 163.1 74.8 157.2 64.4L146.3 45.5L123.9 45.2L101.4 45L90.5 64.2ZM147.9 70.2L156 84.3L147.8 98.7L139.7 113L123.6 112.8L107.6 112.5L99.8 99C95.6 91.6 92.1 85.1 92.1 84.6C92 83.8 101.4 66.7 105.7 59.7L108 56H139.9L147.9 70.2Z"/>
<path fill="#f08e2d" d="M14.5 104.2C10.1 112 5.10001 120.8 3.30001 123.9L0.100006 129.5L11.4 149L22.6 168.5H67.4L78.6 149L89.9 129.5L86.7 123.9C84.9 120.8 79.9 112 75.5 104.2L67.5 90H22.5L14.5 104.2ZM69.1 115.1C75.4 126 77.1 129.6 76.4 130.9C75.8 131.8 72.1 138.2 68.1 145.2L60.8 158H29.2L21.9 145.2C17.9 138.2 14.2 131.8 13.6 130.9C12.9 129.6 14.6 126 20.9 115.1L29.2 101H60.8L69.1 115.1Z"/>
</svg>
