<svg width="180" height="180" viewBox="0 0 180 180" fill="none" xmlns="http://www.w3.org/2000/svg">
<path d="M78.1 0.344733C65.5 2.34473 49.2 8.44473 39.9 14.8447C33 19.5447 21.1 31.2447 16 38.3447C10.5 46.0447 5.2 57.5447 2.4 68.0447C-0.8 79.6447 -0.8 99.8447 2.4 111.445C7.1 128.745 14.8 141.945 27.7 154.345C36.7 162.945 42.3 166.845 52.2 171.345C65.4 177.345 74.3 179.145 89.6 179.145C104.9 179.145 113.8 177.345 127 171.345C136.9 166.845 142.5 162.945 151.5 154.345C164.4 141.945 172.1 128.745 176.8 111.445C180 99.8447 180 79.6447 176.8 68.0447C174 57.5447 168.7 46.0447 163.2 38.3447C158.1 31.2447 146.2 19.5447 139.3 14.8447C132.6 10.3447 120.9 5.14473 111.8 2.64473C104.2 0.644733 84.8 -0.655267 78.1 0.344733ZM109.1 13.2447C117.7 15.4447 132.1 22.8447 139.3 28.7447C142.7 31.5447 147.8 36.6447 150.6 40.0447C156.6 47.3447 163.9 61.7447 166.1 70.2447C168 77.6447 169.1 92.1447 168.2 97.1447L167.5 100.745H11.7L11 97.1447C10.1 92.1447 11.2 77.6447 13.1 70.2447C15.3 61.7447 22.6 47.3447 28.6 40.0447C40.1 25.8447 57 15.7447 75.1 12.1447C83.6 10.4447 100.6 11.0447 109.1 13.2447ZM101.9 113.145C102.2 113.845 102.8 116.545 103.1 119.145L103.8 123.745H18.5L16.6 119.445C12.7 111.045 9.1 111.745 58 111.745C93.8 111.745 101.5 111.945 101.9 113.145ZM164.6 113.445C164.6 114.445 163.7 117.145 162.6 119.445L160.7 123.745H138.2C125.8 123.745 115.5 123.345 115.2 122.945C114.9 122.445 114.4 119.745 114 116.945L113.3 111.745H139C162.7 111.745 164.6 111.845 164.6 113.445ZM58.6 135.945C58.6 136.645 57 142.045 55 148.045L51.4 158.745L47.3 156.545C42.8 154.045 25.6 137.645 25.6 135.845C25.6 135.045 30.8 134.745 42.1 134.745C54.6 134.745 58.6 135.045 58.6 135.945ZM106 135.645C106.4 136.145 106.9 138.645 107.2 141.145L107.9 145.745H87.6C70.7 145.745 67.5 145.545 67.9 144.345C68.2 143.545 69 141.145 69.7 138.845L70.9 134.745H88.2C97.7 134.745 105.7 135.145 106 135.645ZM153.6 135.845C153.6 138.145 136 154.345 130 157.445C126.6 159.245 123.4 160.745 122.9 160.745C122.4 160.745 121.2 156.145 120.2 150.445C119.2 144.845 118.2 139.045 117.9 137.445L117.4 134.745H135.5C148 134.745 153.6 135.045 153.6 135.845ZM110 157.545C110.2 157.945 110.7 159.845 111.1 161.845C111.9 166.245 111.7 166.345 99 167.945C88.5 169.245 75 168.145 66.3 165.145C62.2 163.745 61.6 163.245 62.2 161.345C63.6 156.745 63.7 156.745 87.2 156.745C99.4 156.745 109.7 157.045 110 157.545Z" fill="#F08E2D"/>
<path d="M84.6 44.5447C84.6 56.5447 84.3 66.7447 83.9 67.1447C83.5 67.5447 77.9 62.5447 71.4 56.0447L59.6 44.2447L55.9 48.0447L52.1 51.7447L89.6 89.2447L127.1 51.7447L123.3 48.0447L119.6 44.2447L107.8 56.0447C101.3 62.5447 95.7 67.5447 95.3 67.1447C94.9 66.7447 94.6 56.5447 94.6 44.5447V22.7447H84.6V44.5447Z" fill="#F08E2D"/>
</svg>
