<svg width="180" height="180" viewBox="0 0 180 180" fill="none" xmlns="http://www.w3.org/2000/svg">
<path d="M73.2506 1.14365C39.1506 7.64365 11.5506 33.5436 2.35059 67.6436C-0.849414 79.4436 -0.749414 100.344 2.45059 112.144C10.9506 143.544 35.9506 168.344 67.5506 176.844C79.6506 180.044 99.4506 180.044 111.551 176.844C143.351 168.344 168.251 143.444 176.751 111.644C179.951 99.5436 179.951 79.7436 176.751 67.6436C168.251 36.0436 143.251 10.9436 112.051 2.64365C101.451 -0.156353 83.7506 -0.856353 73.2506 1.14365ZM109.051 13.1436C112.351 13.9436 119.151 16.6436 124.051 19.1436C140.451 27.1436 151.951 38.7437 160.051 55.1437C166.451 67.9437 167.951 74.6436 167.951 89.6436C167.951 104.544 166.451 111.344 160.151 124.144C152.051 140.544 140.551 152.044 124.051 160.144C111.251 166.544 104.551 168.044 89.5506 168.044C74.6506 168.044 67.8506 166.544 55.0506 160.244C38.6506 152.144 27.1506 140.644 19.0506 124.144C12.6506 111.344 11.1506 104.644 11.1506 89.6436C11.1506 74.6436 12.6506 67.9437 19.0506 55.1437C30.1506 32.4436 50.4506 16.9436 75.0506 12.0436C83.5506 10.3436 100.551 10.9436 109.051 13.1436Z" fill="#F08E2D"/>
<path d="M76.7506 32.1436C55.0506 36.8436 37.2506 54.6436 32.1506 76.6436C24.7506 107.744 44.9506 139.644 76.5506 147.044C107.951 154.444 140.351 133.744 147.051 102.044C155.951 60.1436 118.651 23.0436 76.7506 32.1436Z" fill="#F08E2D"/>
</svg>
