<svg width="280" height="280" viewBox="0 0 280 280" fill="none" xmlns="http://www.w3.org/2000/svg">
<path d="M195.334 11.3604C227.845 25.3636 253.991 51.3308 268.227 83.7173C229.643 80.4826 198.846 49.8647 195.334 11.3604Z" fill="#8BBD3A"/>
<path d="M140 280C217.32 280 280 217.32 280 140C280 120.03 275.819 101.036 268.284 83.8471C248.673 85.6309 229.863 90.1903 212.252 97.1292C219.714 109.679 224 124.339 224 140C224 186.392 186.392 224 140 224C124.339 224 109.679 219.714 97.1292 212.252C90.1902 229.863 85.6309 248.673 83.8471 268.284C101.036 275.819 120.03 280 140 280Z" fill="#8BBD3A"/>
<path d="M0 140C0 197.35 34.4835 246.645 83.8471 268.284C85.6309 248.673 90.1902 229.863 97.1292 212.252C85.0956 205.096 75.0019 195.02 67.8254 183C76.0513 154.376 116.453 97.1292 212.252 97.1292C229.863 90.1903 248.673 85.6309 268.284 83.8471C268.122 83.4782 267.959 83.1101 267.794 82.7428C267.94 83.067 268.084 83.3918 268.227 83.7173C229.643 80.4826 198.846 49.8647 195.334 11.3604C178.361 4.04976 159.654 0 140 0C62.6801 0 0 62.6801 0 140Z" fill="#402F73"/>
<path d="M221.704 93.6738C236.54 88.6647 252.14 85.3155 268.284 83.8471C268.122 83.4782 267.959 83.1101 267.794 82.7428C267.94 83.067 268.084 83.3918 268.227 83.7173C245.482 81.8105 225.444 70.3883 212.105 53.4444C218.37 63.2858 222 74.969 222 87.5C222 89.5829 221.9 91.6423 221.704 93.6738Z" fill="#F08E2D"/>
<path d="M168.5 70C174.299 70 179 65.299 179 59.5C179 53.701 174.299 49 168.5 49C162.701 49 158 53.701 158 59.5C158 65.299 162.701 70 168.5 70Z" fill="#466BA2"/>
<path d="M97.1292 212.252C117.83 159.71 159.71 117.83 212.252 97.1292C116.453 97.1292 76.0513 154.376 67.8254 183C75.0019 195.02 85.0956 205.096 97.1292 212.252Z" fill="#466BA2"/>
</svg>
