<svg width="180" height="169" viewBox="0 0 180 169" fill="none" xmlns="http://www.w3.org/2000/svg">
<path d="M29.8 29.8C8.6 51 0 60.2 0 61.8C0 63.2 2.7 66.8 7.1 71.5L14.3 79L8.2 85.3C-0.5 94.5 -2 101.5 3 109.8C5.2 113.3 10 116.8 14 117.6C16 118 17 119.3 18.3 123C20.3 128.6 24.4 132.5 29.9 134C33.1 134.8 33.9 135.5 34.4 138.2C35.6 144.3 41.1 149.6 47.4 150.9C49.8 151.4 50.5 152.3 51.7 156.2C54.9 167.5 69.6 172.4 78.2 165.2C80.7 163.1 81.5 162.9 82.9 163.8C83.8 164.5 86.4 166 88.8 167.1C96 170.5 104.9 167.6 109.5 160.3C111.3 157.3 112 157.1 116.8 157C125.2 157 130.2 153.5 133.8 144.9C135.5 140.9 136.3 140.2 139.4 139.6C144.1 138.7 149.7 133.1 150.6 128.6C151.3 124.6 152.3 123.6 156.4 122.6C160.7 121.6 166.6 115.2 167.9 110.2C169.6 104.1 167.9 99.2 162.1 92.8L157.2 87.5L168.6 75.8C176.4 67.8 180 63.5 180 61.9C180 60.2 172.1 51.6 150.8 30.3C134.7 14.2 120.7 0.70001 119.7 0.40001C118.8 0.10001 108.9 2.90001 97.9 6.50001L77.9 13.2L71 6.60001C66.7 2.60001 63.1 9.69497e-06 61.7 9.69497e-06C60.2 9.69497e-06 50.9 8.70001 29.8 29.8ZM141.5 37L166.5 62L157.7 70.7L149 79.5L127.3 57.8C115.3 45.9 104.2 35.6 102.7 35C98.8 33.6 91.6 33.7 87.7 35.3C80 38.6 73 48.2 73 55.8C73 60.7 70.4 64.9 66.3 66.7C61.8 68.5 58.8 67.8 57 64.5C55.2 61.1 56.3 57.8 65.3 40.5L72.5 26.6L94 19.4C105.8 15.4 115.7 12.1 116 12.1C116.3 12 127.8 23.3 141.5 37ZM63.9 15.4C64.9 16.5 63.2 20.7 55.6 35.7C44.9 57.1 43.7 61.4 46.8 68.1C49.2 73.5 52.3 76.4 57.3 78C68.9 81.7 84 70.4 84 58C84 50.4 89.1 45 96.2 45C99.1 45 102.2 47.8 127.7 73.2C143.2 88.7 156.4 102.6 157.1 104.2C158 106.5 157.9 107.4 156.6 109.5C155.7 110.9 154.6 112 154.1 112C153.6 112 152.5 112.3 151.6 112.6C150.6 113 147.9 111.1 143.6 107L137.2 100.8L133.1 104.6L128.9 108.3L135 114.6C141.4 121.2 142.1 123.4 139.2 127C136 130.9 132.5 130 125.9 123.4L120 117.6L116.5 121C114.6 122.9 113 124.8 113 125.4C113 125.9 115.5 128.9 118.5 132.1C124.3 138.2 125 140.2 122.4 143.8C120 147.3 115.1 146.8 111 142.5L107.6 139L103.9 142.6C100.6 145.8 100.3 146.6 100.7 150C101.1 153 100.8 154.1 98.9 155.9C96.3 158.3 94.1 158.6 91.6 156.7C89.8 155.4 89.8 155.1 92.4 150.8C98.3 140.6 94.6 129.2 83.8 125.2C79.4 123.6 78.4 122.8 77.9 120.2C76.7 114.1 71.8 109.3 65.6 108.1C62.5 107.4 61.5 106.1 60.5 101.6C59.7 97.6 53.9 92.3 49 91C45.6 90.1 44.9 89.4 44 86.1C42.1 78.8 36 74 28.8 74C26 74 24.4 73 19.5 68L13.5 62L37.5 38C50.7 24.8 61.8 14 62.1 14C62.5 14 63.3 14.6 63.9 15.4ZM31.5 86.5C35.4 90.3 34.7 92.6 27.2 100.2C19.7 107.7 16.6 108.7 13 104.8C10.7 102.3 10.4 99.1 12.3 96.8C15.2 93.2 26.1 84 27.5 84C28.4 84 30.2 85.1 31.5 86.5ZM48.9 103.6C50.1 105.1 51 106.9 51 107.6C51 109.6 40.2 121.2 36.8 122.9C34.2 124.2 33.7 124.2 31.2 122.3C26.3 118.6 27 115.7 34.8 107.9C42.6 100.1 45.5 99.2 48.9 103.6ZM65.9 120.6C67.1 122.1 68 123.9 68 124.7C68 126.5 55.4 139.7 52.9 140.5C51 141.1 47 139.5 45.8 137.6C43.6 134.4 45.1 131.2 51.9 124.7C59.7 117.1 62.5 116.3 65.9 120.6ZM82.5 137C85.8 140.6 84.7 143.7 77.9 150.6C70.8 157.8 69.1 158.6 65.8 156.9C59.8 153.8 60.5 150 68.7 141.8C76 134.4 79.2 133.3 82.5 137Z" fill="#F08E2D"/>
</svg>
