<svg width="124" height="112" viewBox="0 0 124 112" fill="none" xmlns="http://www.w3.org/2000/svg">
<path d="M54.5 1.52599C51.3 3.12599 18.4 35.326 14.7 40.426C12.6 43.326 12.5 44.626 12 71.926L11.5 100.426L5.8 100.726L0 101.026V106.426V111.926H28H56V106.526V101.026L50.8 100.726L45.5 100.426L45.2 78.926L45 57.526L53.2 49.226C57.7 44.626 61.9 40.926 62.5 40.926C63.1 40.926 68.4 45.826 74.4 51.826C86 63.526 86.1 63.826 81.1 68.326C79.3 70.026 79 71.326 79 79.626V88.926H84.5H90V81.626C90.1 74.926 90.3 74.126 93.3 70.826C95.1 68.826 98.1 66.726 99.9 66.026C103.3 64.926 103.5 65.026 108.2 69.626L113 74.326V81.626V88.926H118.5H124V79.826V70.726L117.9 63.826C112.2 57.526 111.8 56.726 112.4 53.426C113.9 45.426 112.2 42.826 91.7 22.026C81.1 11.426 71.1 2.12599 69.3 1.32599C65 -0.474007 58.2 -0.474007 54.5 1.52599ZM66.2 12.626C69.6 15.726 68.3 17.926 55.9 30.426L43.8 42.726L40 38.526L36.1 34.426L47.8 22.626C60 10.326 62.3 9.12599 66.2 12.626ZM102 50.226C102 52.426 98.1 55.926 95.7 55.926C94.5 55.926 88.9 51.226 81.9 44.326L70.1 32.626L73.8 28.226L77.5 23.826L89.7 36.226C96.5 43.026 102 49.326 102 50.226ZM32 45.926C33.9 47.826 34 49.226 34 74.426V100.926H28.5H23V74.026C23 47.226 23 47.026 25.2 45.526C28.2 43.426 29.6 43.526 32 45.926Z" fill="#F08E2D"/>
</svg>
