<svg width="179" height="179" viewBox="0 0 179 179" fill="none" xmlns="http://www.w3.org/2000/svg">
<path d="M56.1 1.50001C43.2 5.10001 33 13.8 27.1 26C23.6 33.3 23.5 33.8 23.5 45.1C23.5 56.4 23.6 56.8 27.2 64.1C29.8 69.3 32.8 73.4 37 77.4C40.4 80.6 43 83.3 42.8 83.4C33.7 87.4 27.5 91.6 20.4 98.5C13.6 105.2 11.5 108.1 7.6 116.1C3.3 124.9 0 136.9 0 143.6C0 145.8 0.4 146 5.4 146H10.7L11.4 140.2C14 117.3 32 96.7 54.1 91.5C70.4 87.7 86.5 90.9 100.3 100.6C102.9 102.5 105.4 104 105.8 104C106.3 104 108.1 102.2 109.8 100.1L113 96.2L108.2 92.7C105.6 90.8 101 88 98 86.5C95 85 92.4 83.6 92.2 83.5C92 83.4 94.6 80.6 98 77.4C102.2 73.4 105.2 69.3 107.8 64.2C111.1 57.5 111.8 55.8044 111.8 47.1C111.8 39 111.8 36.4 110 31C105.7 18.2 95.6 7.6 83.2 2.9C75.7 0.100001 63.4 -0.499993 56.1 1.50001ZM82.5 14.9C94.4 20.8 101 31.5 101 45C101 58.6 94.4 69.2 82.2 75.2C76.4 78.1 74.6 78.5 67.5 78.5C60.8 78.5 58.5 78 53.5 75.7C41.3 70 34 58.5 34 45.1C34 37 35.9 31.1 40.5 24.8C50.1 11.7 67.5 7.6 82.5 14.9Z" fill="#F08E2D"/>
<path d="M124.8 104.7C122.7 105.6 121 106.6 121 107.1C121 107.5 121.9 109.9 123 112.4L125 117L117 125L112.4 123C109.9 121.9 107.5 121 107.1 121C105.9 121 102.7 130 103.5 130.8C103.9 131.2 106 132.2 108.3 133.1C112.5 134.7 112.5 134.8 112.8 140.4L113.1 146.1L108.1 148.2C105.3 149.3 103 150.6 103 151.1C103 151.6 103.7 153.8 104.6 156.1C106.4 160.5 107 160.6 113.7 157.9C116.9 156.6 117.1 156.7 120.9 160.4L124.9 164.3L123.3 167.9C120.7 173.9 121 175 126.1 177L130.7 178.8L132.8 173.7L135 168.5L146.4 168.7L148.4 173.6C149.5 176.3 150.4 178.6 150.5 178.8C150.9 179.3 160 175 160 174.3C160 173.9 159.2 171.4 158.3 168.7L156.6 163.9L160.3 160.3L163.9 156.6L168.7 158.3C171.4 159.2 173.9 160 174.3 160C175 160 179.3 150.9 178.8 150.5C178.6 150.4 176.3 149.5 173.6 148.4L168.7 146.4L168.5 135L173.7 132.8L178.8 130.7L177 126.1C175 121 173.9 120.7 167.9 123.3L164.3 124.9L160.4 120.9C156.7 117.1 156.6 116.9 157.9 113.7C160.6 107 160.5 106.4 156.1 104.6C153.8 103.7 151.6 103 151.1 103C150.6 103 149.3 105.3 148.2 108.1L146.1 113.1L134.8 112.5L133 108C131 102.9 130 102.5 124.8 104.7ZM150.2 126.5C157.3 131.9 159.6 140.6 155.8 148C150.3 158.6 137.4 161 129.1 152.8C125 148.8 124 146.3 124 140.1C124 134.5 126.7 129.8 132 126.2C134.9 124.2 136.5 123.9 141.5 124.2C145.5 124.4 148.4 125.2 150.2 126.5Z" fill="#F08E2D"/>
</svg>
