<svg width="180" height="160" viewBox="0 0 180 160" fill="none" xmlns="http://www.w3.org/2000/svg">
<path d="M63.3 2.50001C58.5 4.50001 56.8 8.10001 56.2 16.6L55.7 24H0V136H112V125H11V94.5C11 77.7 11.2 64 11.5 64C11.8 64 24.6 70.3 40 78L68 92V102H112V92L140 78C155.4 70.3 168.2 64 168.5 64C168.8 64 169 75.2 169 89V114H180V24H124.3L123.8 16.6C123.2 8.00001 121.4 4.50001 116.5 2.40001C111.7 0.400006 68 0.400006 63.3 2.50001ZM112.5 23.5H67.5L67.2 19.1C66.6 11.6 65.4 11.9 90.2 12.2L112.5 12.5V23.5ZM168.5 51.5L141 65.2C125.9 72.7 113.2 78.9 112.8 78.9C112.3 79 112 76.7 112 74V69H68V74C68 76.7 67.7 79 67.3 78.9C66.8 78.9 54.1 72.7 39 65.2L11.5 51.5L10.9 35H169.1L168.5 51.5ZM101 91H79V80H101V91Z" fill="#F08E2D"/>
<path d="M146 125H124V136H145.9L146.5 158.5L156.9 159.1L157.5 136.5L180 135.9V125.1L157.5 124.5L156.9 103H146V125Z" fill="#F08E2D"/>
</svg>
