<svg width="180" height="180" viewBox="0 0 180 180" fill="none" xmlns="http://www.w3.org/2000/svg">
<path d="M90 45L67.8 45.2L45.5 45.5L45.2 67.7L45 90H0V180H90V135L112.3 134.8L134.5 134.5L134.8 112.2L135 90H180V0H90V45ZM168.5 78.5L151.8 78.8L135 79L134.8 62.3L134.5 45.5L117.8 45.2L101 45V28.6C101 19.7 101.3 12 101.7 11.7C102.1 11.3 117.2 11.1 135.4 11.2L168.5 11.5V78.5ZM123.5 123.5L106.8 123.8L90 124V90H56V73.7C56 64.7 56.3 57 56.7 56.7C57.1 56.3 72.2 56.1 90.4 56.2L123.5 56.5V123.5ZM78.5 168.5H11.5L11.2 136C11.1 118.1 11.2 102.9 11.5 102.2C11.8 101.2 19 101 45.2 101.2L78.5 101.5V168.5Z" fill="#F08E2D"/>
</svg>
